<?xml version="1.0" encoding="utf-8"?>
<!-- Svg Vector Icons : http://www.onlinewebfonts.com/icon -->
<!DOCTYPE svg PUBLIC "-//W3C//DTD SVG 1.1//EN" "http://www.w3.org/Graphics/SVG/1.1/DTD/svg11.dtd">
<svg version="1.1" xmlns="http://www.w3.org/2000/svg" xmlns:xlink="http://www.w3.org/1999/xlink" x="0px" y="0px" viewBox="0 0 1000 1000" enable-background="new 0 0 1000 1000" xml:space="preserve">
<metadata> Svg Vector Icons : http://www.onlinewebfonts.com/icon </metadata>
<g><path d="M790.9,461.3c-109.9,0-199-90.1-199-201.1c0-111.1,89.1-201.1,199-201.1S990,149.1,990,260.2C990,371.2,900.8,461.3,790.9,461.3z M882.7,213.7h-45.9v-46.4c0-25.6-20.5-46.4-45.9-46.4c-25.3,0-45.9,20.7-45.9,46.4v46.5H699c-25.3,0-45.9,20.8-45.9,46.4c0,25.6,20.6,46.4,45.9,46.4H745V353c0,25.7,20.6,46.4,45.9,46.4c25.4,0,45.9-20.7,45.9-46.4v-46.4h45.9c25.4,0,45.9-20.8,45.9-46.4C928.7,234.6,908.2,213.7,882.7,213.7z M380.9,598.1l394.7-26.6l28.8-64.6c43.2-2.4,83.3-15.9,117.7-38l-74,166l0,0c-6.8,15.3-21.5,26.2-38.8,27.3l0,0l-396.9,26.7l22.9,66.2h432.1c50.7,0,91.8,41.6,91.8,92.8s-41.2,92.8-91.8,92.8c-50.8,0-91.8-41.6-91.8-92.8H346.9c0,51.2-41.1,92.8-91.8,92.8s-91.8-41.6-91.8-92.8s41.1-92.8,91.8-92.8h83L161.2,244.7H55.9c-25.4,0-45.9-20.8-45.9-46.4c0-25.7,20.5-46.4,45.9-46.4h137.8c20,0,36.9,13.1,43.2,31.1h0.1l26.7,77.2h282.1c0,32.9,6.4,64.1,18,92.8H296L380.9,598.1z"/></g>
</svg>